<svg width="60" height="25" viewBox="0 0 60 25" fill="none" xmlns="http://www.w3.org/2000/svg">
<g clip-path="url(#clip0_1897_632)">
<path d="M12.5 0C10.0277 0 7.611 0.733112 5.55538 2.10663C3.49977 3.48015 1.89761 5.43238 0.951512 7.71646C0.00541608 10.0005 -0.242126 12.5139 0.24019 14.9386C0.722505 17.3634 1.91302 19.5907 3.66117 21.3388C5.40933 23.087 7.63662 24.2775 10.0614 24.7598C12.4861 25.2421 14.9995 24.9946 17.2836 24.0485C19.5676 23.1024 21.5199 21.5002 22.8934 19.4446C24.2669 17.389 25 14.9723 25 12.5C25 9.18479 23.6831 6.00537 21.3389 3.66116C18.9946 1.31696 15.8152 0 12.5 0V0ZM12.5 18.75C11.2639 18.75 10.0555 18.3834 9.0277 17.6967C7.99989 17.0099 7.19881 16.0338 6.72576 14.8918C6.25272 13.7497 6.12894 12.4931 6.3701 11.2807C6.61126 10.0683 7.20652 8.95466 8.08059 8.08058C8.95467 7.2065 10.0683 6.61125 11.2807 6.37009C12.4931 6.12893 13.7498 6.25271 14.8918 6.72575C16.0338 7.1988 17.0099 7.99988 17.6967 9.02769C18.3835 10.0555 18.75 11.2639 18.75 12.5C18.75 14.1576 18.0915 15.7473 16.9194 16.9194C15.7473 18.0915 14.1576 18.75 12.5 18.75Z" fill="black"/>
<path d="M53.5571 18.75C52.321 18.75 51.1126 18.3834 50.0848 17.6967C49.057 17.0099 48.2559 16.0338 47.7829 14.8918C47.3098 13.7497 47.1861 12.4931 47.4272 11.2807C47.6684 10.0683 48.2636 8.95466 49.1377 8.08059C50.0118 7.20651 51.1254 6.61125 52.3378 6.37009C53.5502 6.12894 54.8069 6.25271 55.9489 6.72576C57.0909 7.1988 58.067 7.99988 58.7538 9.02769C59.4406 10.0555 59.8071 11.2639 59.8071 12.5C59.8071 14.1576 59.1486 15.7473 57.9765 16.9194C56.8044 18.0915 55.2147 18.75 53.5571 18.75Z" fill="black"/>
</g>
<defs>
<clipPath id="clip0_1897_632">
<rect width="59.8073" height="25" fill="white"/>
</clipPath>
</defs>
</svg>
